<svg width="46" height="46" viewBox="0 0 46 46" fill="none" xmlns="http://www.w3.org/2000/svg">
<path d="M36.6563 25.1562C35.5651 25.1571 34.4841 25.3664 33.4715 25.7729C33.2123 24.6027 33.0765 23.4086 33.0661 22.2101C33.357 22.2553 33.6508 22.2793 33.9452 22.282C34.4121 22.2821 34.8642 22.1183 35.2226 21.8191C35.5811 21.5199 35.823 21.1044 35.9063 20.6449C35.9896 20.1855 35.9089 19.7115 35.6782 19.3055C35.4476 18.8995 35.0818 18.5874 34.6445 18.4237L30.1875 16.7519V16.5312C30.3782 16.5312 30.561 16.4555 30.6958 16.3207C30.8306 16.1859 30.9063 16.0031 30.9063 15.8125V12.9375C30.9063 12.8757 30.8991 12.8153 30.8969 12.7542C31.2263 12.8717 31.5729 12.9337 31.9226 12.9375C32.3989 12.9391 32.8662 12.8072 33.2714 12.5568C33.6767 12.3064 34.0037 11.9476 34.2154 11.5208L34.4246 11.1025C34.4743 11.0027 34.5001 10.8927 34.5 10.7812V10.2321L34.6855 9.86197L34.8486 9.95972C34.9577 10.0252 35.0822 10.0606 35.2094 10.0623C35.3366 10.064 35.4619 10.0318 35.5727 9.96921C35.6834 9.90657 35.7755 9.81567 35.8396 9.70578C35.9037 9.5959 35.9375 9.47097 35.9375 9.34375V8.625C35.9358 7.29116 35.4052 6.01243 34.462 5.06926C33.5189 4.12609 32.2401 3.59546 30.9063 3.59375H30.7115C30.3468 3.59455 29.9895 3.69679 29.6796 3.88904C29.3697 4.08128 29.1193 4.35595 28.9566 4.68233C28.7939 5.00871 28.7251 5.37393 28.7581 5.73714C28.791 6.10035 28.9244 6.44724 29.1432 6.739L28.0356 8.40075C27.3615 8.07635 26.6231 7.90736 25.875 7.90625C22.9209 7.90426 20.0328 8.77984 17.5771 10.4219L14.7021 12.3366C13.9379 12.8455 13.3113 13.5353 12.8781 14.3447C12.4449 15.1541 12.2184 16.0581 12.2188 16.9762C12.2188 18.6973 12.6968 20.3846 13.5995 21.85L15.4977 24.9406L14.1493 26.6261C12.5783 25.5698 10.7032 25.0597 8.81355 25.1746C6.92385 25.2895 5.12444 26.0229 3.69288 27.2618C2.26132 28.5006 1.27714 30.1761 0.892145 32.0297C0.507152 33.8834 0.742736 35.8122 1.56256 37.5187C2.38238 39.2251 3.7409 40.6145 5.42856 41.4723C7.11622 42.3302 9.03926 42.609 10.9011 42.2657C12.7629 41.9224 14.46 40.976 15.7306 39.5726C17.0013 38.1692 17.7749 36.3866 17.9321 34.5H18.4087L18.6875 38.1491C18.7015 38.33 18.7833 38.4989 18.9167 38.6219C19.05 38.745 19.2249 38.813 19.4063 38.8125H24.4375C24.6282 38.8125 24.811 38.7368 24.9458 38.602C25.0806 38.4672 25.1563 38.2844 25.1563 38.0938V37.375C25.1557 36.7378 24.9436 36.1188 24.5534 35.615C24.1632 35.1112 23.6169 34.7512 23 34.5913V32.4559L31.9384 25.5034C31.9966 25.8189 32.0757 26.1294 32.1497 26.4378C30.381 27.5287 29.0667 29.2227 28.4494 31.2069C27.8321 33.1912 27.9534 35.3318 28.791 37.2335C29.6286 39.1353 31.126 40.6699 33.0066 41.5539C34.8872 42.438 37.0242 42.6119 39.023 42.0435C41.0218 41.4751 42.7475 40.2028 43.8816 38.4614C45.0156 36.7201 45.4814 34.6273 45.193 32.5693C44.9046 30.5113 43.8814 28.6272 42.3124 27.2647C40.7433 25.9022 38.7343 25.1533 36.6563 25.1562ZM19.5263 18.147L19.987 17.6856L21.0422 18.4762L20.092 19.6168L19.5263 18.147ZM21.6696 23.7188H21.9837L21.7566 23.9459L21.6696 23.7188ZM21.1162 22.2812L20.6849 21.1535L22.1943 19.3401L23.0633 19.992C23.2358 20.1204 23.3811 20.2816 23.4909 20.4664C23.6007 20.6513 23.6728 20.856 23.703 21.0689C23.7332 21.2818 23.7209 21.4985 23.6669 21.7066C23.6129 21.9147 23.5181 22.11 23.3882 22.2812H21.1162ZM23.9251 18.8427L21.035 16.675C22.0865 15.7079 23.3337 14.9782 24.692 14.5353L25.1951 16.0389C25.2425 16.1819 25.3337 16.3063 25.4557 16.3947C25.5777 16.483 25.7244 16.5308 25.875 16.5312V19.4062C25.8751 19.557 25.9227 19.704 26.0109 19.8263C26.0991 19.9485 26.2236 20.04 26.3667 20.0876L31.625 21.8407V22.1231C31.625 22.1763 31.6315 22.2281 31.6322 22.2812H24.9845C25.0946 21.9672 25.1526 21.6372 25.1563 21.3045C25.1552 20.8269 25.0435 20.3561 24.8298 19.929C24.6162 19.5019 24.3065 19.1301 23.9251 18.8427ZM29.2165 17.9235L34.1399 19.7692C34.2643 19.813 34.369 19.8997 34.4352 20.0137C34.5015 20.1276 34.525 20.2615 34.5016 20.3912C34.4782 20.521 34.4093 20.6381 34.3073 20.7217C34.2054 20.8053 34.077 20.8498 33.9452 20.8473C33.4377 20.8477 32.9336 20.7659 32.4523 20.6051L27.3125 18.888V16.5312H28.75V17.25C28.7499 17.3964 28.7946 17.5393 28.8779 17.6597C28.9613 17.7801 29.0794 17.8721 29.2165 17.9235ZM30.3428 7.53178C30.6734 7.65037 31.0012 7.77472 31.3196 7.92206C30.7499 8.2262 30.1599 8.49038 29.5536 8.71269L30.3428 7.53178ZM33.138 9.74122C33.0883 9.84101 33.0624 9.951 33.0625 10.0625V10.6116L32.9288 10.8783C32.8361 11.0657 32.6926 11.2233 32.5147 11.3332C32.3368 11.4431 32.1317 11.5009 31.9226 11.5C31.6947 11.5006 31.4689 11.4559 31.2583 11.3687C31.0477 11.2815 30.8565 11.1534 30.6957 10.9918C30.6223 10.9197 30.534 10.8645 30.4369 10.8301C30.3164 10.5676 30.1733 10.3161 30.0093 10.0783C30.981 9.72317 31.9144 9.27069 32.7952 8.72778L33.4485 9.12022L33.138 9.74122ZM30.7115 5.03125H30.9063C31.7594 5.03248 32.5844 5.33665 33.2342 5.88952C33.8839 6.4424 34.3162 7.20805 34.454 8.05L33.1603 7.27447C32.3399 6.7827 31.4684 6.38167 30.5613 6.07847C30.4515 6.04218 30.3562 5.97193 30.289 5.87786C30.2218 5.7838 30.1863 5.67081 30.1875 5.55522C30.1877 5.41631 30.243 5.28315 30.3412 5.18493C30.4394 5.0867 30.5726 5.03144 30.7115 5.03125ZM18.3734 11.615C20.5938 10.1316 23.2047 9.34112 25.875 9.34375C26.8278 9.34489 27.7412 9.72388 28.4149 10.3976C29.0886 11.0713 29.4676 11.9847 29.4688 12.9375V15.0938H26.3933L25.8377 13.4291C25.7804 13.2575 25.6606 13.1138 25.502 13.0267C25.3435 12.9395 25.1579 12.9154 24.9823 12.9591C22.9748 13.4609 21.1413 14.4988 19.678 15.962L18.6279 17.0121L14.8516 14.0746C15.0481 13.8714 15.2649 13.6889 15.4984 13.5297L18.3734 11.615ZM13.6563 16.9762C13.6584 16.384 13.7875 15.7992 14.0351 15.2612L18.0881 18.4129L19.2776 21.5036C18.2121 22.1084 17.0554 22.5361 15.8528 22.77L14.8235 21.0975C14.0604 19.8582 13.6563 18.4315 13.6563 16.9762ZM9.34378 40.9688C8.22489 40.9708 7.12099 40.7115 6.11996 40.2117C5.11893 39.7118 4.24842 38.9851 3.57774 38.0895C2.90706 37.1939 2.45474 36.1541 2.25679 35.0529C2.05883 33.9516 2.12072 32.8194 2.43751 31.7463C2.7543 30.6732 3.31725 29.6888 4.08154 28.8717C4.84582 28.0545 5.79034 27.427 6.83988 27.0392C7.88943 26.6514 9.01501 26.5141 10.127 26.638C11.239 26.7619 12.3067 27.1438 13.2452 27.7531L12.7938 28.3188C11.607 27.5703 10.2089 27.2284 8.81064 27.3446C7.41238 27.4608 6.08991 28.0288 5.04293 28.9629C3.99595 29.8969 3.28133 31.1463 3.00699 32.5223C2.73265 33.8983 2.91349 35.3262 3.5222 36.5903C4.1309 37.8545 5.13442 38.8862 6.3812 39.5298C7.62797 40.1734 9.0503 40.3938 10.4334 40.1577C11.8164 39.9217 13.0852 39.242 14.0479 38.2213C15.0107 37.2007 15.6152 35.8945 15.7701 34.5H16.4946C16.3144 36.272 15.4836 37.9142 14.1627 39.109C12.8419 40.3039 11.1249 40.9665 9.34378 40.9688ZM16.4946 33.0625H15.7701C15.6081 31.6063 14.9551 30.2486 13.9186 29.2129L14.3686 28.6508C15.5732 29.8262 16.3258 31.3879 16.4946 33.0625ZM8.69691 34.0932C8.75557 34.215 8.84738 34.3177 8.9618 34.3897C9.07622 34.4616 9.20862 34.4999 9.34378 34.5H14.3175C14.165 35.57 13.6726 36.5626 12.9129 37.3313C12.1531 38.1 11.1664 38.604 10.0983 38.7691C9.03015 38.9341 7.93728 38.7514 6.98097 38.2478C6.02466 37.7443 5.25559 36.9466 4.78727 35.9725C4.31896 34.9985 4.17622 33.8997 4.38013 32.8383C4.58403 31.7769 5.12378 30.8092 5.9197 30.0781C6.71561 29.3469 7.72552 28.891 8.80035 28.7776C9.87517 28.6643 10.958 28.8995 11.8889 29.4486L8.78244 33.3299C8.69745 33.436 8.6443 33.564 8.62916 33.6992C8.61402 33.8343 8.63751 33.9709 8.69691 34.0932ZM10.8388 33.0625L13.0094 30.3478C13.7137 31.097 14.1704 32.0448 14.3175 33.0625H10.8388ZM17.9321 33.0625C17.7557 30.9524 16.8067 28.9817 15.267 27.5281L16.2984 26.2387L17.9839 28.9786L18.2987 33.0625H17.9321ZM23.7188 37.375H20.0718L19.4063 28.6947C19.3972 28.5809 19.3615 28.4708 19.3021 28.3734L16.6563 24.0738C17.7536 23.8103 18.8108 23.4018 19.8002 22.8591L21.5625 27.4462V35.2188C21.5625 35.4094 21.6383 35.5922 21.773 35.727C21.9078 35.8618 22.0907 35.9375 22.2813 35.9375C22.6625 35.9375 23.0282 36.089 23.2977 36.3585C23.5673 36.6281 23.7188 36.9938 23.7188 37.375ZM23 30.6346V27.3125C23.0002 27.2243 22.9841 27.1368 22.9526 27.0545L22.3215 25.4136L24.0163 23.7188H31.6969L31.7106 23.8625L23 30.6346ZM36.6563 40.9688C35.1266 40.9685 33.6369 40.48 32.4042 39.5742C31.1715 38.6684 30.2602 37.3927 29.8031 35.9329C29.3459 34.4731 29.3667 32.9055 29.8625 31.4584C30.3583 30.0113 31.3031 28.7602 32.5594 27.8875C32.6378 28.1283 32.7032 28.3719 32.7923 28.6062C31.4833 29.5931 30.6012 31.0432 30.327 32.6594C30.0527 34.2756 30.4069 35.9356 31.3171 37.299C32.2273 38.6624 33.6245 39.6261 35.2223 39.9926C36.8202 40.359 38.4977 40.1005 39.911 39.27C41.3244 38.4394 42.3666 37.0998 42.824 35.5256C43.2814 33.9514 43.1195 32.2618 42.3713 30.8032C41.6231 29.3445 40.3454 28.2273 38.8 27.6803C37.2546 27.1334 35.5586 27.1983 34.0594 27.8616C33.9789 27.6338 33.9092 27.4023 33.8381 27.1716C34.8187 26.7527 35.8802 26.5572 36.9457 26.5994C38.0112 26.6415 39.054 26.9202 39.9985 27.4152C40.943 27.9103 41.7654 28.6093 42.4063 29.4616C43.0472 30.3139 43.4904 31.2981 43.7038 32.3428C43.9172 33.3876 43.8955 34.4668 43.6402 35.5021C43.3849 36.5374 42.9024 37.503 42.2277 38.3288C41.553 39.1545 40.7031 39.8199 39.7394 40.2765C38.7758 40.7331 37.7226 40.9696 36.6563 40.9688ZM34.5971 29.1956C35.7601 28.6705 37.0789 28.6052 38.2881 29.0129C39.4974 29.4205 40.5074 30.2708 41.1153 31.3929C41.7231 32.5149 41.8836 33.8255 41.5645 35.061C41.2454 36.2966 40.4704 37.3655 39.3952 38.0529C38.3201 38.7403 37.0245 38.9952 35.7691 38.7663C34.5137 38.5374 33.3915 37.8417 32.6282 36.819C31.8648 35.7964 31.517 34.5227 31.6545 33.2541C31.792 31.9854 32.4047 30.8158 33.3694 29.9805C34.0841 31.5216 35.0064 32.9576 36.1108 34.2484L37.2018 33.3141C36.1422 32.0721 35.2651 30.6853 34.5971 29.1956ZM9.34378 6.46875H17.9688V7.90625H9.34378V6.46875ZM5.03128 9.34375H12.2188V10.7812H5.03128V9.34375Z" fill="#0C5CE4"/>
<path d="M0.71875 20.125H10.0625V21.5625H0.71875V20.125ZM0.71875 17.25H5.03125V18.6875H0.71875V17.25Z" fill="#0C5CE4"/>
</svg>
