<svg width="36" height="45" viewBox="0 0 36 45" fill="none" xmlns="http://www.w3.org/2000/svg">
<path d="M8.43726 7.77637C8.29203 7.77637 8.15274 7.83406 8.05005 7.93676C7.94736 8.03945 7.88966 8.17873 7.88966 8.32396V10.9359C7.88966 11.0078 7.90383 11.079 7.93134 11.1455C7.95886 11.2119 7.9992 11.2723 8.05005 11.3231C8.1009 11.374 8.16127 11.4143 8.2277 11.4418C8.29414 11.4693 8.36535 11.4835 8.43726 11.4835C8.50917 11.4835 8.58038 11.4693 8.64682 11.4418C8.71325 11.4143 8.77362 11.374 8.82447 11.3231C8.87532 11.2723 8.91565 11.2119 8.94317 11.1455C8.97069 11.079 8.98486 11.0078 8.98486 10.9359V8.32405C8.98487 8.25214 8.97071 8.18092 8.9432 8.11447C8.91569 8.04802 8.87535 7.98765 8.8245 7.93679C8.77365 7.88593 8.71328 7.84558 8.64684 7.81806C8.58039 7.79053 8.50918 7.77637 8.43726 7.77637ZM10.9097 7.77637C10.7644 7.77637 10.6252 7.83406 10.5225 7.93676C10.4198 8.03945 10.3621 8.17873 10.3621 8.32396V10.9359C10.3621 11.0811 10.4198 11.2204 10.5225 11.3231C10.6252 11.4258 10.7644 11.4835 10.9097 11.4835C11.0549 11.4835 11.1942 11.4258 11.2969 11.3231C11.3996 11.2204 11.4573 11.0811 11.4573 10.9359V8.32405C11.4573 8.25213 11.4431 8.18091 11.4156 8.11446C11.3881 8.048 11.3478 7.98762 11.2969 7.93676C11.2461 7.8859 11.1857 7.84556 11.1193 7.81804C11.0528 7.79051 10.9816 7.77636 10.9097 7.77637ZM13.3822 7.77637C13.2369 7.77637 13.0977 7.83406 12.995 7.93676C12.8923 8.03945 12.8346 8.17873 12.8346 8.32396V10.9359C12.8346 11.0811 12.8923 11.2204 12.995 11.3231C13.0977 11.4258 13.2369 11.4835 13.3822 11.4835C13.5274 11.4835 13.6667 11.4258 13.7694 11.3231C13.8721 11.2204 13.9298 11.0811 13.9298 10.9359V8.32405C13.9298 8.25214 13.9156 8.18092 13.8881 8.11447C13.8606 8.04802 13.8203 7.98765 13.7694 7.93679C13.7186 7.88593 13.6582 7.84558 13.5917 7.81806C13.5253 7.79053 13.4541 7.77637 13.3822 7.77637ZM15.876 7.77637C15.7307 7.77637 15.5914 7.83406 15.4888 7.93676C15.3861 8.03945 15.3284 8.17873 15.3284 8.32396V10.9359C15.3284 11.0811 15.3861 11.2204 15.4888 11.3231C15.5914 11.4258 15.7307 11.4835 15.876 11.4835C16.0212 11.4835 16.1605 11.4258 16.2632 11.3231C16.3659 11.2204 16.4236 11.0811 16.4236 10.9359V8.32405C16.4236 8.25214 16.4094 8.18092 16.3819 8.11447C16.3544 8.04802 16.3141 7.98765 16.2632 7.93679C16.2124 7.88593 16.152 7.84558 16.0855 7.81806C16.0191 7.79053 15.9479 7.77637 15.876 7.77637ZM8.71605 14.4181H6.79869C6.37903 14.4181 6.03735 14.7599 6.03735 15.1796V22.5173C6.03735 22.937 6.37894 23.2788 6.79869 23.2788H8.71605C9.13571 23.2788 9.47738 22.937 9.47738 22.5173V15.1796C9.47729 14.7599 9.13571 14.4181 8.71605 14.4181ZM8.3821 22.1836H7.13264V15.5133H8.3821V22.1836ZM13.1152 14.4181H11.1981C10.7781 14.4181 10.4366 14.7599 10.4366 15.1796V22.5173C10.4366 22.937 10.7781 23.2788 11.1981 23.2788H13.1152C13.5351 23.2788 13.8767 22.937 13.8767 22.5173V15.1796C13.8768 14.7599 13.5351 14.4181 13.1152 14.4181ZM12.7815 22.1836H11.5317V15.5133H12.7815V22.1836ZM17.5145 14.4181H15.5972C15.1775 14.4181 14.8358 14.7599 14.8358 15.1796V22.5173C14.8358 22.937 15.1774 23.2788 15.5972 23.2788H17.5145C17.9342 23.2788 18.2759 22.937 18.2759 22.5173V15.1796C18.2759 14.7599 17.9343 14.4181 17.5145 14.4181ZM17.1807 22.1836H15.9312V15.5133H17.1807V22.1836ZM8.71605 35.0741C9.13571 35.0741 9.47738 34.7323 9.47738 34.3126V26.9744C9.47738 26.5548 9.1358 26.2134 8.71605 26.2134H6.79869C6.37903 26.2134 6.03735 26.5548 6.03735 26.9744V34.3126C6.03735 34.7323 6.37894 35.0741 6.79869 35.0741H8.71605ZM7.13264 27.3086H8.3821V33.9789H7.13264V27.3086ZM11.1981 35.0741H13.1152C13.5351 35.0741 13.8767 34.7323 13.8767 34.3126V26.9744C13.8767 26.5548 13.5351 26.2134 13.1152 26.2134H11.1981C10.7781 26.2134 10.4366 26.5548 10.4366 26.9744V34.3126C10.4366 34.7324 10.7781 35.0741 11.1981 35.0741ZM11.5317 27.3086H12.7815V33.9789H11.5317V27.3086ZM15.5973 35.0741H17.5146C17.9343 35.0741 18.276 34.7323 18.276 34.3126V26.9744C18.276 26.5548 17.9344 26.2134 17.5146 26.2134H15.5973C15.1776 26.2134 14.8359 26.5548 14.8359 26.9744V34.3126C14.8359 34.7324 15.1775 35.0741 15.5973 35.0741ZM15.9311 27.3086H17.1806V33.9789H15.9311V27.3086ZM29.5629 20.37H23.2976C23.1524 20.37 23.0131 20.4277 22.9104 20.5304C22.8077 20.6331 22.75 20.7724 22.75 20.9176C22.75 21.0629 22.8077 21.2021 22.9104 21.3048C23.0131 21.4075 23.1524 21.4652 23.2976 21.4652H29.5629C29.7082 21.4652 29.8475 21.4075 29.9501 21.3048C30.0528 21.2021 30.1105 21.0629 30.1105 20.9176C30.1105 20.7724 30.0528 20.6331 29.9501 20.5304C29.8475 20.4277 29.7082 20.37 29.5629 20.37ZM29.5629 25.3089H23.2976C23.2257 25.3089 23.1545 25.3231 23.088 25.3506C23.0216 25.3781 22.9612 25.4185 22.9104 25.4693C22.8595 25.5202 22.8192 25.5805 22.7917 25.647C22.7642 25.7134 22.75 25.7846 22.75 25.8565C22.75 25.9284 22.7642 25.9996 22.7917 26.0661C22.8192 26.1325 22.8595 26.1929 22.9104 26.2437C22.9612 26.2946 23.0216 26.3349 23.088 26.3624C23.1545 26.39 23.2257 26.4041 23.2976 26.4041H29.5629C29.6349 26.4041 29.7061 26.39 29.7725 26.3624C29.8389 26.3349 29.8993 26.2946 29.9501 26.2437C30.001 26.1929 30.0413 26.1325 30.0689 26.0661C30.0964 25.9996 30.1105 25.9284 30.1105 25.8565C30.1105 25.7846 30.0964 25.7134 30.0689 25.647C30.0413 25.5805 30.001 25.5202 29.9501 25.4693C29.8993 25.4185 29.8389 25.3781 29.7725 25.3506C29.7061 25.3231 29.6349 25.3089 29.5629 25.3089ZM29.5629 30.2478H23.2976C23.1524 30.2478 23.0131 30.3055 22.9104 30.4082C22.8077 30.5109 22.75 30.6502 22.75 30.7954C22.75 30.9406 22.8077 31.0799 22.9104 31.1826C23.0131 31.2853 23.1524 31.343 23.2976 31.343H29.5629C29.7082 31.343 29.8475 31.2853 29.9501 31.1826C30.0528 31.0799 30.1105 30.9406 30.1105 30.7954C30.1105 30.6502 30.0528 30.5109 29.9501 30.4082C29.8475 30.3055 29.7082 30.2478 29.5629 30.2478ZM29.5629 35.1863H23.2976C23.1524 35.1863 23.0131 35.244 22.9104 35.3466C22.8077 35.4493 22.75 35.5886 22.75 35.7339C22.75 35.8791 22.8077 36.0184 22.9104 36.1211C23.0131 36.2238 23.1524 36.2815 23.2976 36.2815H29.5629C29.7082 36.2815 29.8475 36.2238 29.9501 36.1211C30.0528 36.0184 30.1105 35.8791 30.1105 35.7339C30.1105 35.5886 30.0528 35.4493 29.9501 35.3466C29.8475 35.244 29.7082 35.1863 29.5629 35.1863ZM29.5629 40.1252H23.2976C23.1524 40.1252 23.0131 40.1828 22.9104 40.2855C22.8077 40.3882 22.75 40.5275 22.75 40.6727C22.75 40.818 22.8077 40.9573 22.9104 41.06C23.0131 41.1627 23.1524 41.2203 23.2976 41.2203H29.5629C29.7082 41.2203 29.8475 41.1627 29.9501 41.06C30.0528 40.9573 30.1105 40.818 30.1105 40.6727C30.1105 40.5275 30.0528 40.3882 29.9501 40.2855C29.8475 40.1828 29.7082 40.1252 29.5629 40.1252Z" fill="#0C5CE4"/>
<path d="M34.9089 43.8094H33.7753V18.7667C33.7753 17.4524 32.706 16.3833 31.3917 16.3833H20.1795V13.4493C20.1795 12.7407 19.6033 12.1645 18.8948 12.1645H18.2759V7.48273C18.2759 6.6656 17.6111 6.00075 16.794 6.00075H12.7042V0.547598C12.7042 0.402366 12.6465 0.263082 12.5438 0.160388C12.4411 0.0576931 12.3018 0 12.1566 0C12.0113 0 11.8721 0.0576931 11.7694 0.160388C11.6667 0.263082 11.609 0.402366 11.609 0.547598V6.00075H7.51929C6.70216 6.00075 6.03732 6.6656 6.03732 7.48273V12.1645H5.41848C4.70997 12.1645 4.13371 12.7407 4.13371 13.4493V24.4377H3.38909C2.58777 24.4377 1.93595 25.0892 1.93595 25.8906V43.8095H0.547598C0.402366 43.8095 0.263082 43.8672 0.160388 43.9699C0.0576934 44.0726 0 44.2119 0 44.3571C0 44.5023 0.0576934 44.6416 0.160388 44.7443C0.263082 44.847 0.402366 44.9047 0.547598 44.9047H34.9089C35.0541 44.9047 35.1934 44.847 35.2961 44.7443C35.3988 44.6416 35.4565 44.5023 35.4565 44.3571C35.4565 44.2118 35.3988 44.0725 35.2961 43.9698C35.1934 43.8671 35.0541 43.8094 34.9089 43.8094ZM7.1326 7.48273C7.13277 7.3802 7.17357 7.28192 7.24607 7.20942C7.31857 7.13692 7.41685 7.09612 7.51938 7.09595H16.7939C16.8964 7.09607 16.9947 7.13686 17.0672 7.20936C17.1397 7.28187 17.1805 7.38018 17.1806 7.48273V12.1645H7.1326V7.48273ZM5.22891 13.4493C5.22891 13.3449 5.31381 13.2597 5.41848 13.2597H18.8947C18.9993 13.2597 19.0842 13.3449 19.0842 13.4493V24.4377H5.22891V13.4493ZM3.03115 25.8905C3.03129 25.7957 3.06904 25.7048 3.13613 25.6377C3.20321 25.5707 3.29415 25.533 3.389 25.5329H20.9241C21.0189 25.533 21.1099 25.5707 21.1769 25.6377C21.244 25.7048 21.2818 25.7957 21.2819 25.8905V43.7833H15.9077V39.1366C15.9077 38.108 15.0711 37.2717 14.0428 37.2717H10.2703C9.24205 37.2717 8.40542 38.1081 8.40542 39.1366V43.7833H3.03115V25.8905ZM14.8125 43.7834H9.50062V39.1367C9.50062 38.7122 9.84589 38.367 10.2703 38.367H14.0429C14.4674 38.367 14.8126 38.7122 14.8126 39.1367V43.7834H14.8125ZM22.3773 43.8094V25.8905C22.3773 25.0892 21.7255 24.4376 20.9242 24.4376H20.1803V17.4786H31.3917C32.1021 17.4786 32.6801 18.0565 32.6801 18.7667V43.8094H22.3773Z" fill="#0C5CE4"/>
</svg>
