<svg width="46" height="46" viewBox="0 0 46 46" fill="none" xmlns="http://www.w3.org/2000/svg">
<g clip-path="url(#clip0_194_193)">
<path d="M25.1562 7.1875V2.875C25.1562 2.30313 24.9291 1.75468 24.5247 1.3503C24.1203 0.945926 23.5719 0.71875 23 0.71875C22.4281 0.71875 21.8797 0.945926 21.4753 1.3503C21.0709 1.75468 20.8438 2.30313 20.8438 2.875V7.1875C20.8438 7.75937 21.0709 8.30782 21.4753 8.7122C21.8797 9.11657 22.4281 9.34375 23 9.34375C23.5719 9.34375 24.1203 9.11657 24.5247 8.7122C24.9291 8.30782 25.1562 7.75937 25.1562 7.1875ZM22.2812 7.1875V2.875C22.2812 2.68438 22.357 2.50156 22.4918 2.36677C22.6266 2.23198 22.8094 2.15625 23 2.15625C23.1906 2.15625 23.3734 2.23198 23.5082 2.36677C23.643 2.50156 23.7188 2.68438 23.7188 2.875V7.1875C23.7188 7.37812 23.643 7.56094 23.5082 7.69573C23.3734 7.83052 23.1906 7.90625 23 7.90625C22.8094 7.90625 22.6266 7.83052 22.4918 7.69573C22.357 7.56094 22.2812 7.37812 22.2812 7.1875ZM35.7061 7.245L32.6571 10.2939C32.4512 10.4928 32.2869 10.7308 32.1739 10.9938C32.0609 11.2569 32.0014 11.5399 31.9989 11.8262C31.9964 12.1125 32.051 12.3964 32.1594 12.6614C32.2678 12.9264 32.4279 13.1671 32.6304 13.3696C32.8329 13.5721 33.0736 13.7322 33.3386 13.8406C33.6036 13.949 33.8875 14.0036 34.1738 14.0011C34.4601 13.9986 34.7431 13.9391 35.0062 13.8261C35.2692 13.7131 35.5072 13.5488 35.7061 13.3429L38.755 10.2939C39.1592 9.88958 39.3863 9.34123 39.3863 8.76947C39.3863 8.19771 39.1592 7.64936 38.755 7.245C38.3443 6.85299 37.7983 6.63427 37.2305 6.63427C36.6628 6.63427 36.1168 6.85299 35.7061 7.245ZM37.7387 9.27763L34.6898 12.3266C34.5532 12.4579 34.3711 12.5312 34.1816 12.5312C33.9921 12.5312 33.81 12.4579 33.6734 12.3266C33.6062 12.2603 33.553 12.1813 33.5168 12.0942C33.4806 12.007 33.4623 11.9135 33.4628 11.8191C33.4629 11.6285 33.5386 11.4457 33.6734 11.311L36.7224 8.26203C36.8571 8.12751 37.0398 8.05195 37.2302 8.05195C37.4206 8.05195 37.6032 8.12751 37.738 8.26203C37.8725 8.39679 37.9481 8.57942 37.9481 8.76983C37.9481 8.96024 37.8732 9.14287 37.7387 9.27763ZM10.2939 13.3429C10.6983 13.7471 11.2466 13.9742 11.8184 13.9742C12.3902 13.9742 12.9385 13.7471 13.3429 13.3429C13.7471 12.9385 13.9742 12.3902 13.9742 11.8184C13.9742 11.2466 13.7471 10.6983 13.3429 10.2939L10.2939 7.245C9.88304 6.85332 9.33714 6.63482 8.76947 6.63482C8.20179 6.63482 7.6559 6.85332 7.245 7.245C7.04473 7.44523 6.88587 7.68295 6.77749 7.94458C6.66911 8.20621 6.61332 8.48663 6.61332 8.76983C6.61332 9.05302 6.66911 9.33344 6.77749 9.59507C6.88587 9.85671 7.04473 10.0944 7.245 10.2947L10.2939 13.3429ZM8.26562 8.26131C8.40038 8.12679 8.58301 8.05123 8.77342 8.05123C8.96383 8.05123 9.14646 8.12679 9.28122 8.26131L12.3302 11.3103C12.465 11.445 12.5407 11.6278 12.5407 11.8184C12.5413 11.9128 12.523 12.0063 12.4868 12.0934C12.4506 12.1806 12.3974 12.2596 12.3302 12.3258C12.1935 12.4566 12.0116 12.5296 11.8224 12.5296C11.6332 12.5296 11.4513 12.4566 11.3146 12.3258L8.26562 9.27691C8.13088 9.14212 8.05518 8.95934 8.05518 8.76875C8.05518 8.57816 8.13088 8.39538 8.26562 8.26059V8.26131ZM43.125 20.8438H38.8125C38.2406 20.8438 37.6922 21.0709 37.2878 21.4753C36.8834 21.8797 36.6562 22.4281 36.6562 23C36.6562 23.5719 36.8834 24.1203 37.2878 24.5247C37.6922 24.9291 38.2406 25.1562 38.8125 25.1562H43.125C43.6969 25.1562 44.2453 24.9291 44.6497 24.5247C45.0541 24.1203 45.2812 23.5719 45.2812 23C45.2812 22.4281 45.0541 21.8797 44.6497 21.4753C44.2453 21.0709 43.6969 20.8438 43.125 20.8438ZM43.125 23.7188H38.8125C38.6219 23.7188 38.4391 23.643 38.3043 23.5082C38.1695 23.3734 38.0938 23.1906 38.0938 23C38.0938 22.8094 38.1695 22.6266 38.3043 22.4918C38.4391 22.357 38.6219 22.2812 38.8125 22.2812H43.125C43.3156 22.2812 43.4984 22.357 43.6332 22.4918C43.768 22.6266 43.8438 22.8094 43.8438 23C43.8438 23.1906 43.768 23.3734 43.6332 23.5082C43.4984 23.643 43.3156 23.7188 43.125 23.7188ZM0.71875 23C0.71875 23.5719 0.945926 24.1203 1.3503 24.5247C1.75468 24.9291 2.30313 25.1562 2.875 25.1562H7.1875C7.75937 25.1562 8.30782 24.9291 8.7122 24.5247C9.11657 24.1203 9.34375 23.5719 9.34375 23C9.34375 22.4281 9.11657 21.8797 8.7122 21.4753C8.30782 21.0709 7.75937 20.8438 7.1875 20.8438H2.875C2.30313 20.8438 1.75468 21.0709 1.3503 21.4753C0.945926 21.8797 0.71875 22.4281 0.71875 23ZM7.90625 23C7.90625 23.1906 7.83052 23.3734 7.69573 23.5082C7.56094 23.643 7.37812 23.7188 7.1875 23.7188H2.875C2.68438 23.7188 2.50156 23.643 2.36677 23.5082C2.23198 23.3734 2.15625 23.1906 2.15625 23C2.15625 22.8094 2.23198 22.6266 2.36677 22.4918C2.50156 22.357 2.68438 22.2812 2.875 22.2812H7.1875C7.37812 22.2812 7.56094 22.357 7.69573 22.4918C7.83052 22.6266 7.90625 22.8094 7.90625 23Z" fill="#0C5CE4"/>
<path d="M43.2687 29.0375C42.3894 28.4047 41.3334 28.0643 40.25 28.0643C39.1666 28.0643 38.1106 28.4047 37.2313 29.0375L36.6562 29.4688C36.1461 29.8338 35.5514 30.0629 34.9282 30.1346C34.305 30.2063 33.6738 30.1181 33.0941 29.8784C34.4852 27.855 35.2264 25.4555 35.2188 23C35.2188 19.7594 33.9314 16.6515 31.64 14.36C29.3485 12.0686 26.2406 10.7813 23 10.7812C19.7594 10.7813 16.6515 12.0686 14.36 14.36C12.0686 16.6515 10.7812 19.7594 10.7812 23C10.774 25.4557 11.5157 27.8552 12.9073 29.8784C12.3274 30.1184 11.696 30.2067 11.0725 30.135C10.449 30.0633 9.85406 29.834 9.34375 29.4688L8.76875 29.0375C7.88953 28.4043 6.83348 28.0636 5.75 28.0636C4.66652 28.0636 3.61047 28.4043 2.73125 29.0375L1.00625 30.3313C0.916984 30.3982 0.844532 30.485 0.79463 30.5848C0.744729 30.6846 0.71875 30.7947 0.71875 30.9062V44.5625C0.71875 44.7531 0.794475 44.9359 0.929267 45.0707C1.06406 45.2055 1.24688 45.2812 1.4375 45.2812H44.5625C44.7531 45.2812 44.9359 45.2055 45.0707 45.0707C45.2055 44.9359 45.2812 44.7531 45.2812 44.5625V30.9062C45.2812 30.7947 45.2553 30.6846 45.2054 30.5848C45.1555 30.485 45.083 30.3982 44.9937 30.3313L43.2687 29.0375ZM23 12.2188C25.8584 12.222 28.5987 13.3589 30.6199 15.3801C32.6411 17.4013 33.778 20.1416 33.7812 23C33.7872 25.186 33.121 27.3211 31.873 29.1158L31.7688 29.0375C30.8894 28.4047 29.8334 28.0643 28.75 28.0643C27.6666 28.0643 26.6106 28.4047 25.7312 29.0375L25.1562 29.4688C24.5283 29.9211 23.7739 30.1645 23 30.1645C22.2261 30.1645 21.4717 29.9211 20.8438 29.4688L20.2688 29.0375C19.3894 28.4047 18.3334 28.0643 17.25 28.0643C16.1666 28.0643 15.1106 28.4047 14.2312 29.0375L14.1263 29.1158C12.8783 27.3211 12.2124 25.186 12.2188 23C12.222 20.1416 13.3589 17.4013 15.3801 15.3801C17.4013 13.3589 20.1416 12.222 23 12.2188ZM3.59375 30.1875C4.22174 29.7352 4.97607 29.4918 5.75 29.4918C6.52393 29.4918 7.27826 29.7352 7.90625 30.1875L8.48125 30.6187C9.36064 31.2515 10.4166 31.5919 11.5 31.5919C12.5834 31.5919 13.6394 31.2515 14.5188 30.6187L15.0938 30.1875C15.7217 29.7352 16.4761 29.4918 17.25 29.4918C18.0239 29.4918 18.7783 29.7352 19.4062 30.1875L19.9812 30.6187C20.8606 31.2515 21.9166 31.5919 23 31.5919C24.0834 31.5919 25.1394 31.2515 26.0188 30.6187L26.5938 30.1875C27.2217 29.7352 27.9761 29.4918 28.75 29.4918C29.5239 29.4918 30.2783 29.7352 30.9062 30.1875L31.4812 30.6187C32.3606 31.2515 33.4166 31.5919 34.5 31.5919C35.5834 31.5919 36.6394 31.2515 37.5187 30.6187L38.0938 30.1875C38.7219 29.7356 39.4762 29.4925 40.25 29.4925C41.0238 29.4925 41.7781 29.7356 42.4062 30.1875L43.8438 31.2656V34.5L43.2687 34.0688C42.3894 33.436 41.3334 33.0956 40.25 33.0956C39.1666 33.0956 38.1106 33.436 37.2313 34.0688L36.6562 34.5C36.0283 34.9523 35.2739 35.1957 34.5 35.1957C33.7261 35.1957 32.9717 34.9523 32.3438 34.5L31.7688 34.0688C30.8894 33.436 29.8334 33.0956 28.75 33.0956C27.6666 33.0956 26.6106 33.436 25.7312 34.0688L25.1562 34.5C24.5283 34.9523 23.7739 35.1957 23 35.1957C22.2261 35.1957 21.4717 34.9523 20.8438 34.5L20.2688 34.0688C19.3894 33.436 18.3334 33.0956 17.25 33.0956C16.1666 33.0956 15.1106 33.436 14.2312 34.0688L13.6562 34.5C13.0283 34.9523 12.2739 35.1957 11.5 35.1957C10.7261 35.1957 9.97174 34.9523 9.34375 34.5L8.76875 34.0688C7.88953 33.4356 6.83348 33.0949 5.75 33.0949C4.66652 33.0949 3.61047 33.4356 2.73125 34.0688L2.15625 34.5V31.2656L3.59375 30.1875ZM2.15625 36.2969L3.59375 35.2188C4.22174 34.7664 4.97607 34.523 5.75 34.523C6.52393 34.523 7.27826 34.7664 7.90625 35.2188L8.48125 35.65C9.36064 36.2828 10.4166 36.6232 11.5 36.6232C12.5834 36.6232 13.6394 36.2828 14.5188 35.65L15.0938 35.2188C15.7217 34.7664 16.4761 34.523 17.25 34.523C18.0239 34.523 18.7783 34.7664 19.4062 35.2188L19.9812 35.65C20.8606 36.2828 21.9166 36.6232 23 36.6232C24.0834 36.6232 25.1394 36.2828 26.0188 35.65L26.5938 35.2188C27.2217 34.7664 27.9761 34.523 28.75 34.523C29.5239 34.523 30.2783 34.7664 30.9062 35.2188L31.4812 35.65C32.3521 36.3032 33.4114 36.6562 34.5 36.6562C35.5886 36.6562 36.6479 36.3032 37.5187 35.65L38.0938 35.2188C38.7219 34.7668 39.4762 34.5237 40.25 34.5237C41.0238 34.5237 41.7781 34.7668 42.4062 35.2188L43.8438 36.2969V40.25L43.2687 39.8188C42.3894 39.186 41.3334 38.8456 40.25 38.8456C39.1666 38.8456 38.1106 39.186 37.2313 39.8188L36.6562 40.25C36.0283 40.7023 35.2739 40.9457 34.5 40.9457C33.7261 40.9457 32.9717 40.7023 32.3438 40.25L31.7688 39.8188C30.8894 39.186 29.8334 38.8456 28.75 38.8456C27.6666 38.8456 26.6106 39.186 25.7312 39.8188L25.1562 40.25C24.5283 40.7023 23.7739 40.9457 23 40.9457C22.2261 40.9457 21.4717 40.7023 20.8438 40.25L20.2688 39.8188C19.3894 39.186 18.3334 38.8456 17.25 38.8456C16.1666 38.8456 15.1106 39.186 14.2312 39.8188L13.6562 40.25C13.0283 40.7023 12.2739 40.9457 11.5 40.9457C10.7261 40.9457 9.97174 40.7023 9.34375 40.25L8.76875 39.8188C7.88953 39.1856 6.83348 38.8449 5.75 38.8449C4.66652 38.8449 3.61047 39.1856 2.73125 39.8188L2.15625 40.25V36.2969ZM2.15625 43.8438V42.0469L3.59375 40.9688C4.22174 40.5164 4.97607 40.273 5.75 40.273C6.52393 40.273 7.27826 40.5164 7.90625 40.9688L8.48125 41.4C9.36064 42.0328 10.4166 42.3732 11.5 42.3732C12.5834 42.3732 13.6394 42.0328 14.5188 41.4L15.0938 40.9688C15.7217 40.5164 16.4761 40.273 17.25 40.273C18.0239 40.273 18.7783 40.5164 19.4062 40.9688L19.9812 41.4C20.8606 42.0328 21.9166 42.3732 23 42.3732C24.0834 42.3732 25.1394 42.0328 26.0188 41.4L26.5938 40.9688C27.2217 40.5164 27.9761 40.273 28.75 40.273C29.5239 40.273 30.2783 40.5164 30.9062 40.9688L31.4812 41.4C32.3521 42.0532 33.4114 42.4062 34.5 42.4062C35.5886 42.4062 36.6479 42.0532 37.5187 41.4L38.0938 40.9688C38.7219 40.5168 39.4762 40.2737 40.25 40.2737C41.0238 40.2737 41.7781 40.5168 42.4062 40.9688L43.8438 42.0469V43.8438H2.15625Z" fill="#0C5CE4"/>
</g>
<defs>
<clipPath id="clip0_194_193">
<rect width="46" height="46" fill="white"/>
</clipPath>
</defs>
</svg>
